# xmcd
#
# Track frame offsets:
#	150
#	18651
#	29751
#	49358
#	61660
#	75045
#	92951
#	113944
#	130355
#	151895
#	167344
#	179376
#	198054
#	214481
#	226465
#
# Disc length: 3229 seconds
#
# Revision: 3
# Processed by: cddbd v1.4PL0 Copyright (c) Steve Scherf et al.
# Submitted via: audiograbber 1.80.04
#
DISCID=c50c9b0f
DTITLE=One Bar Town - Power of Principles
DYEAR=2001
DGENRE=Country
TTITLE0=Always
TTITLE1=Storyteller
TTITLE2=Why Do They...
TTITLE3=Power of Principles
TTITLE4=Get Up Again
TTITLE5=Hotel New Hampshire
TTITLE6=Faith
TTITLE7=Candy (Part 2)
TTITLE8=Doc Jekyll and Mr. Die
TTITLE9=People
TTITLE10=The Cities Where We Live
TTITLE11=Solitary Man
TTITLE12=The Sex We Don't Have
TTITLE13=Requiem for Tom Traubert
TTITLE14=Indifferent
EXTD=
EXTT0=
EXTT1=
EXTT2=
EXTT3=
EXTT4=
EXTT5=
EXTT6=
EXTT7=
EXTT8=
EXTT9=
EXTT10=
EXTT11=Neil Diamond Cover
EXTT12=
EXTT13=
EXTT14=
PLAYORDER=
